<svg width="644" height="344" viewBox="0 0 644 344" fill="none" xmlns="http://www.w3.org/2000/svg">
<path d="M38.9611 115.962C31.636 115.962 25.082 114.228 19.2991 110.758C13.5162 107.288 8.93803 102.565 5.56466 96.5897C2.28767 90.614 0.64917 83.8191 0.64917 76.2049C0.64917 68.6871 2.28767 61.9403 5.56466 55.9646C8.93803 49.8926 13.5162 45.1217 19.2991 41.6519C25.082 38.1821 31.636 36.4473 38.9611 36.4473C45.8042 36.4473 52.069 37.7002 57.7556 40.2062C63.4421 42.7121 67.8757 46.1819 71.0563 50.6154L59.7796 64.2053C58.4302 62.374 56.7435 60.7356 54.7195 59.2898C52.6955 57.7477 50.4787 56.5429 48.0692 55.6755C45.756 54.8081 43.3464 54.3743 40.8405 54.3743C36.8888 54.3743 33.3709 55.3382 30.2867 57.2658C27.2988 59.0971 24.9375 61.6512 23.2026 64.9282C21.4677 68.2052 20.6003 71.9641 20.6003 76.2049C20.6003 80.3493 21.4677 84.06 23.2026 87.337C25.0338 90.5176 27.4916 93.1199 30.5758 95.144C33.66 97.0716 37.1298 98.0354 40.9851 98.0354C43.491 98.0354 45.8524 97.6981 48.0692 97.0234C50.2859 96.2524 52.3582 95.144 54.2858 93.6982C56.3098 92.2525 58.1411 90.5176 59.7796 88.4936L70.9117 102.083C67.6347 106.228 63.1048 109.601 57.3218 112.204C51.5389 114.71 45.4187 115.962 38.9611 115.962Z" fill="#EF767A"/>
<path d="M93.464 114.517V38.0376H113.27L113.993 62.615L110.524 57.5549C111.68 53.6033 113.56 50.0371 116.162 46.8565C118.764 43.5795 121.8 41.0254 125.27 39.1942C128.836 37.3629 132.547 36.4473 136.402 36.4473C138.041 36.4473 139.631 36.5918 141.173 36.881C142.715 37.1701 144.016 37.5075 145.077 37.893L139.583 60.4464C138.426 59.8681 137.029 59.3862 135.39 59.0007C133.752 58.5188 132.065 58.2778 130.33 58.2778C128.017 58.2778 125.848 58.7115 123.824 59.579C121.897 60.35 120.21 61.5066 118.764 63.0487C117.319 64.4945 116.162 66.2293 115.295 68.2534C114.523 70.2774 114.138 72.4942 114.138 74.9037V114.517H93.464Z" fill="#EF767A"/>
<path d="M199.294 115.962C191.005 115.962 183.776 114.276 177.608 110.902C171.439 107.529 166.62 102.903 163.15 97.0234C159.681 91.1441 157.946 84.3974 157.946 76.7832C157.946 70.9039 158.91 65.5065 160.837 60.591C162.765 55.6755 165.464 51.4347 168.933 47.8685C172.403 44.206 176.499 41.4109 181.222 39.4833C186.041 37.4593 191.246 36.4473 196.836 36.4473C202.041 36.4473 206.86 37.4111 211.293 39.3387C215.727 41.17 219.534 43.8205 222.715 47.2903C225.992 50.6636 228.498 54.6635 230.232 59.2898C231.967 63.9162 232.738 68.9762 232.546 74.47L232.401 80.8312H170.957L167.632 68.2534H215.486L213.173 70.8557V67.6751C212.98 65.0728 212.113 62.7114 210.57 60.591C209.125 58.4706 207.245 56.8321 204.932 55.6755C202.619 54.5189 200.017 53.9406 197.125 53.9406C192.884 53.9406 189.27 54.7599 186.282 56.3984C183.391 58.0369 181.174 60.4464 179.632 63.627C178.09 66.8076 177.319 70.6629 177.319 75.1929C177.319 79.8192 178.282 83.8191 180.21 87.1924C182.234 90.5658 185.029 93.2163 188.595 95.144C192.258 96.9752 196.547 97.8909 201.462 97.8909C204.836 97.8909 207.92 97.3608 210.715 96.3005C213.51 95.2403 216.498 93.4091 219.679 90.8068L229.51 104.541C226.714 107.047 223.63 109.168 220.257 110.902C216.883 112.541 213.414 113.794 209.848 114.661C206.281 115.529 202.764 115.962 199.294 115.962Z" fill="#EF767A"/>
<path d="M285.739 115.962C279.378 115.962 273.643 114.228 268.535 110.758C263.427 107.288 259.379 102.565 256.391 96.5897C253.403 90.614 251.909 83.7709 251.909 76.0603C251.909 68.3497 253.403 61.5548 256.391 55.6755C259.475 49.6998 263.62 45.0253 268.824 41.6519C274.029 38.1821 279.957 36.4473 286.607 36.4473C290.366 36.4473 293.787 37.0256 296.872 38.1821C300.052 39.2423 302.799 40.7363 305.112 42.6639C307.522 44.5916 309.546 46.8083 311.184 49.3143C312.823 51.8202 313.979 54.5189 314.654 57.4104L310.317 56.6875V38.0376H330.702V114.517H310.028V96.156L314.654 95.7223C313.883 98.421 312.63 100.975 310.895 103.385C309.16 105.794 306.992 107.963 304.389 109.89C301.883 111.722 299.04 113.216 295.86 114.372C292.679 115.432 289.306 115.962 285.739 115.962ZM291.378 98.18C295.233 98.18 298.606 97.2644 301.498 95.4331C304.389 93.6018 306.606 91.0477 308.148 87.7707C309.787 84.3974 310.606 80.4939 310.606 76.0603C310.606 71.7231 309.787 67.916 308.148 64.639C306.606 61.362 304.389 58.8079 301.498 56.9766C298.606 55.049 295.233 54.0852 291.378 54.0852C287.619 54.0852 284.294 55.049 281.402 56.9766C278.607 58.8079 276.39 61.362 274.752 64.639C273.113 67.916 272.294 71.7231 272.294 76.0603C272.294 80.4939 273.113 84.3974 274.752 87.7707C276.39 91.0477 278.607 93.6018 281.402 95.4331C284.294 97.2644 287.619 98.18 291.378 98.18Z" fill="#EF767A"/>
<path d="M368.055 114.517V18.6648H388.584V114.517H368.055ZM353.742 56.3984V38.0376H404.198V56.3984H353.742Z" fill="#EF767A"/>
<path d="M428.711 114.517V38.0376H449.24V114.517H428.711ZM438.831 22.2791C434.879 22.2791 431.795 21.3153 429.578 19.3876C427.362 17.46 426.253 14.7131 426.253 11.147C426.253 7.86998 427.362 5.21947 429.578 3.19544C431.892 1.07504 434.976 0.0148315 438.831 0.0148315C442.783 0.0148315 445.867 1.02684 448.084 3.05087C450.301 4.97851 451.409 7.67721 451.409 11.147C451.409 14.5203 450.252 17.219 447.939 19.2431C445.722 21.2671 442.686 22.2791 438.831 22.2791Z" fill="#EF767A"/>
<path d="M504.563 114.517L472.468 38.0376H495.021L515.406 95.144L510.635 96.0114L532.032 38.0376H554.007L520.322 114.517H504.563Z" fill="#EF767A"/>
<path d="M610.113 115.962C601.824 115.962 594.595 114.276 588.427 110.902C582.259 107.529 577.439 102.903 573.97 97.0234C570.5 91.1441 568.765 84.3974 568.765 76.7832C568.765 70.9039 569.729 65.5065 571.657 60.591C573.584 55.6755 576.283 51.4347 579.753 47.8685C583.222 44.206 587.319 41.4109 592.041 39.4833C596.86 37.4593 602.065 36.4473 607.655 36.4473C612.86 36.4473 617.679 37.4111 622.113 39.3387C626.546 41.17 630.353 43.8205 633.534 47.2903C636.811 50.6636 639.317 54.6635 641.052 59.2898C642.786 63.9162 643.558 68.9762 643.365 74.47L643.22 80.8312H581.777L578.451 68.2534H626.305L623.992 70.8557V67.6751C623.799 65.0728 622.932 62.7114 621.39 60.591C619.944 58.4706 618.064 56.8321 615.751 55.6755C613.438 54.5189 610.836 53.9406 607.944 53.9406C603.704 53.9406 600.089 54.7599 597.101 56.3984C594.21 58.0369 591.993 60.4464 590.451 63.627C588.909 66.8076 588.138 70.6629 588.138 75.1929C588.138 79.8192 589.102 83.8191 591.029 87.1924C593.053 90.5658 595.848 93.2163 599.415 95.144C603.077 96.9752 607.366 97.8909 612.282 97.8909C615.655 97.8909 618.739 97.3608 621.534 96.3005C624.329 95.2403 627.317 93.4091 630.498 90.8068L640.329 104.541C637.534 107.047 634.449 109.168 631.076 110.902C627.703 112.541 624.233 113.794 620.667 114.661C617.101 115.529 613.583 115.962 610.113 115.962Z" fill="#EF767A"/>
<path d="M100.867 343.022C82.1045 343.022 65.3105 338.969 50.4855 330.861C35.8921 322.522 24.31 311.172 15.7393 296.81C7.40025 282.448 3.23071 266.002 3.23071 247.47C3.23071 228.939 7.40025 212.608 15.7393 198.478C24.31 184.117 35.8921 172.766 50.4855 164.427C65.3105 156.088 82.1045 151.919 100.867 151.919C119.399 151.919 135.961 156.088 150.554 164.427C165.379 172.766 176.961 184.117 185.301 198.478C193.64 212.608 197.809 228.939 197.809 247.47C197.809 266.002 193.64 282.448 185.301 296.81C176.961 311.172 165.379 322.522 150.554 330.861C135.961 338.969 119.399 343.022 100.867 343.022ZM100.867 299.937C109.901 299.937 118.009 297.736 125.19 293.335C132.371 288.702 137.93 282.448 141.868 274.572C146.037 266.465 148.122 257.431 148.122 247.47C148.122 237.278 146.037 228.244 141.868 220.368C137.93 212.261 132.371 206.007 125.19 201.606C118.009 196.973 109.901 194.656 100.867 194.656C91.6017 194.656 83.3785 196.973 76.1976 201.606C69.0167 206.238 63.3415 212.493 59.172 220.368C55.0025 228.244 53.0335 237.278 53.2652 247.47C53.0335 257.431 55.0025 266.465 59.172 274.572C63.3415 282.448 69.0167 288.702 76.1976 293.335C83.3785 297.736 91.6017 299.937 100.867 299.937Z" fill="#333740"/>
<path d="M295.746 343.022C280.458 343.022 266.675 338.853 254.398 330.514C242.121 322.175 232.392 310.824 225.211 296.462C218.03 282.101 214.44 265.654 214.44 247.123C214.44 228.592 218.03 212.261 225.211 198.131C232.624 183.769 242.584 172.535 255.093 164.427C267.602 156.088 281.847 151.919 297.831 151.919C306.865 151.919 315.088 153.308 322.5 156.088C330.145 158.636 336.746 162.227 342.306 166.859C348.097 171.492 352.961 176.82 356.899 182.843C360.837 188.865 363.617 195.351 365.238 202.3L354.814 200.563V155.741H403.806V339.548H354.119V295.42L365.238 294.378C363.385 300.864 360.374 307.002 356.204 312.793C352.035 318.584 346.823 323.796 340.568 328.429C334.546 332.83 327.712 336.421 320.068 339.2C312.424 341.748 304.317 343.022 295.746 343.022ZM309.297 300.285C318.563 300.285 326.67 298.084 333.619 293.683C340.568 289.282 345.896 283.143 349.602 275.267C353.54 267.16 355.509 257.778 355.509 247.123C355.509 236.699 353.54 227.549 349.602 219.673C345.896 211.798 340.568 205.659 333.619 201.258C326.67 196.625 318.563 194.309 309.297 194.309C300.263 194.309 292.271 196.625 285.322 201.258C278.604 205.659 273.277 211.798 269.339 219.673C265.401 227.549 263.432 236.699 263.432 247.123C263.432 257.778 265.401 267.16 269.339 275.267C273.277 283.143 278.604 289.282 285.322 293.683C292.271 298.084 300.263 300.285 309.297 300.285Z" fill="#333740"/>
<path d="M501.918 284.301L487.325 243.648L574.19 155.741H639.165L501.918 284.301ZM455.011 339.548V156.088H504.35V339.548H455.011ZM579.402 339.548L513.384 256.504L548.131 228.707L638.818 339.548H579.402Z" fill="#333740"/>
</svg>
