<svg width="869" height="865" viewBox="0 0 869 865" fill="none" xmlns="http://www.w3.org/2000/svg">
<path d="M801.167 553.968L800.606 554.048L800.065 554.218C709.668 582.578 603.459 567.351 529.539 507.743C609.321 524.847 691.753 499.972 762.16 453.034L762.735 452.651L763.224 452.162C764.897 450.488 766.432 448.624 767.569 447.242C767.952 446.777 768.289 446.367 768.572 446.037C769.899 444.489 770.659 443.86 771.379 443.5L771.619 443.38L771.849 443.242C803.056 424.518 825.791 397.549 842.207 366.77L842.25 366.689L842.291 366.607C852.535 346.118 860.925 321.183 861.716 296.92C862.512 272.501 855.578 248.239 834.563 230.542L833.034 229.254L831.054 228.972C814.502 226.607 797.874 233.707 788.372 247.96L788.298 248.071L788.229 248.184C750.603 309.573 709.577 360.101 647.501 391.14L646.983 391.399C646.883 391.399 646.768 391.4 646.634 391.4L646.508 391.4C645.847 391.398 644.532 391.396 643.205 391.637C641.911 391.872 640.239 392.393 638.669 393.6C613.518 407.435 585.154 414.282 556.317 417.729C585.992 398.374 610.09 373.273 630.461 343.5L630.547 343.374L630.628 343.244C677.105 268.477 701.923 182.675 677.27 96.3877L677.257 96.3435L677.244 96.2996C664.941 55.2886 633.531 12.0214 585.523 7.61966C573.401 6.30174 564.035 12.5764 558.672 21.4094C553.426 30.0493 551.734 41.3826 554.086 51.9664L554.094 52.0024L554.103 52.0383C567.983 111.526 575.686 164.169 564.039 222.477C554.33 266.126 536.691 306.717 509.152 339.04C514.804 312.241 515.542 284.766 514.043 257.607C514.009 252.613 512.763 247.867 511.517 243.631C511.222 242.629 510.927 241.653 510.636 240.692C509.612 237.305 508.64 234.094 507.926 230.524L507.916 230.472L507.905 230.421C496.761 178.752 473.936 124.332 439.441 82.1719C404.923 39.9823 358.394 9.73908 300.146 7.59631C288.856 6.58389 274.397 6.52337 261.445 10.6568C248.133 14.9053 235.977 23.7916 231.186 40.5601L231.078 40.9401L231.013 41.3299C228.341 57.3622 239.23 69.6279 249.487 77.8341L249.775 78.0641L250.085 78.2626C299.783 110.069 340.661 139.368 373.726 186.025C401.099 226.297 416.436 267.774 420.923 312.802C399.588 279.851 371.671 253.234 337.274 231.94L337.233 231.915L337.191 231.89C296.792 207.65 255.973 191.226 210.844 187.081C173.023 181.115 135.69 176.858 98.1141 189.383L97.9196 189.448L97.7292 189.524C77.4079 197.652 54.5493 209.519 37.1825 226.097C19.6894 242.795 7.41557 264.668 9.62325 292.264L9.76777 294.071L10.7731 295.579C20.6469 310.389 35.5664 313.706 49.8798 312.881C60.8213 312.249 72.5397 309.109 82.5392 306.43C85.0779 305.749 87.5058 305.099 89.782 304.526L107.45 301.582L125.314 298.605C166.018 292.802 206.834 296.654 247.843 308.358C281.095 318.952 312.025 335.422 339.717 356.88C223.185 333.007 100.272 387.922 32.7493 489.149C18.1405 510.044 8.17012 536.709 7.11441 562.838C6.05319 589.103 14.0327 615.324 35.986 633.984L37.7119 635.451L39.9704 635.625C55.7648 636.84 67.6578 629.376 76.7368 619.747C84.6695 611.333 91.0458 600.621 96.4489 591.544C97.0711 590.499 97.6803 589.475 98.2775 588.48C129.569 539.615 170.559 500.614 221.266 473.31L221.566 473.149C221.672 473.148 221.798 473.147 221.945 473.147C221.984 473.147 222.026 473.147 222.072 473.148C222.733 473.149 224.047 473.151 225.374 472.91C226.626 472.683 228.229 472.189 229.753 471.065C248.583 461.718 265.669 455.979 286.685 450.218H286.697H286.711H286.726H286.74H286.755H286.77H286.784H286.799H286.814H286.829H286.843H286.858H286.873H286.888H286.903H286.918H286.933H286.948H286.963H286.978H286.993H287.008H287.023H287.039H287.054H287.069H287.084H287.1H287.115H287.13H287.146H287.161H287.177H287.192H287.208H287.223H287.239H287.254H287.27H287.286H287.301H287.317H287.333H287.348H287.364H287.38H287.396H287.412H287.427H287.443H287.459H287.475H287.491H287.507H287.523H287.539H287.555H287.571H287.587H287.604H287.62H287.636H287.652H287.668H287.684H287.701H287.717H287.733H287.75H287.766H287.782H287.799H287.815H287.831H287.848H287.864H287.881H287.897H287.914H287.93H287.947H287.964H287.98H287.997H288.013H288.03H288.047H288.063H288.08H288.097H288.113H288.13H288.147H288.164H288.181H288.197H288.214H288.231H288.248H288.265H288.282H288.298H288.315H288.332H288.349H288.366H288.383H288.4H288.417H288.434H288.451H288.468H288.485H288.502H288.52H288.537H288.554H288.571H288.588H288.605H288.622H288.639H288.657H288.674H288.691H288.708H288.725H288.743H288.76H288.777H288.794H288.812H288.829H288.846H288.864H288.881H288.898H288.915H288.933H288.95H288.967H288.985H289.002H289.02H289.037H289.054H289.072H289.089H289.107H289.124H289.141H289.159H289.176H289.194H289.211H289.229H289.246H289.263H289.281H289.298H289.316H289.333H289.351H289.368H289.386H289.403H289.421H289.438H289.456H289.473H289.491H289.508H289.526H289.543H289.561H289.578H289.596H289.613H289.631H289.648H289.666H289.683H289.701H289.718H289.736H289.754H289.771H289.789H289.806H289.824H289.841H289.859H289.876H289.894H289.911H289.929H289.946H289.964H289.981H289.999H290.016H290.034H290.051H290.069H290.086H290.104H290.121H290.139H290.156H290.174H290.191H290.209H290.226H290.243H290.261H290.278H290.296H290.313H290.331H290.348H290.365H290.383H290.4H290.418H290.435H290.452H290.47H290.487H290.505H290.522H290.539H290.557H290.574H290.591H290.608H290.626H290.643H290.66H290.678H290.695H290.712H290.729H290.747H290.764H290.781H290.798H290.815H290.833H290.85H290.867H290.884H290.901H290.918H290.935H290.952H290.97H290.987H291.004H291.021H291.038H291.055H291.072H291.089H291.106H291.123H291.14H291.157H291.174H291.19H291.207H291.224H291.241H291.258H291.275H291.292H291.308H291.325H291.342H291.359H291.375H291.392H291.409H291.425H291.442H291.459H291.475H291.492H291.509H291.525H291.542H291.558H291.575H291.591H291.608H291.624H291.641H291.657H291.673H291.69H291.706H291.722H291.739H291.755H291.771H291.788H291.804H291.82H291.836H291.852H291.868H291.885H291.901H291.917H291.933H291.949H291.965H291.981H291.997H292.013H292.029H292.045H292.06H292.076H292.092H292.108H292.124H292.139H292.155H292.171H292.186H292.202H292.218H292.233H292.249H292.264H292.28H292.295H292.311H292.326H292.342H292.357H292.372H292.388H292.403H292.418H292.433H292.449H292.464H292.479H292.494H292.509H292.524H292.539H292.554H292.569H292.584H292.599H292.614H292.629H292.643H292.658H292.673H292.688H292.702H292.717H292.732H292.746H292.761H292.775H292.79H292.804H292.819H292.833H292.847H292.862H292.876H292.89H292.905H292.919H292.933H292.947H292.961H292.975H292.989H293.003H293.017H293.031H293.045H293.059H293.072H293.086H293.1H293.114H293.127H293.141H293.154H293.168H293.182H293.195H293.208H293.222H293.235H293.248H293.262H293.275H293.288H293.301H293.314H293.327H293.34H293.353H293.366H293.379H293.392H293.405H293.418H293.431H293.443H293.456H293.469H293.481H293.494H293.506H293.519H293.531H293.543H293.556H293.568H293.58H293.592H293.605H293.617H293.629H293.641H293.653H293.665H293.677H293.688H293.7H293.712H293.724H294.989L296.174 449.774C302.228 447.504 308.64 446.164 315.23 445.374C282.089 466.743 255.339 494.749 233.956 529.29L233.886 529.403L233.821 529.518C191.499 604.085 166.562 694.006 197.394 778.463C203.712 798.378 216.768 820.873 234.242 836.494C251.842 852.227 274.915 861.711 300.096 852.554L300.28 852.487L300.46 852.41C310.709 848.018 314.492 838.541 315.372 829.743C316.237 821.096 314.535 811.747 312.455 804.406C304.523 768.687 298.76 735.655 300.69 702.849L300.702 702.644V702.439C300.702 686.513 300.71 673.017 302.618 657.638C305.471 642.012 309.317 628.594 313.546 613.84C315.104 608.404 316.714 602.787 318.345 596.811C319.052 594.764 320.124 592.924 321.462 590.917C321.718 590.533 322.013 590.104 322.331 589.641C323.32 588.203 324.53 586.443 325.474 584.72C326.642 583.17 327.15 581.531 327.382 580.256C327.623 578.929 327.621 577.615 327.619 576.954L327.619 576.827C327.619 576.672 327.62 576.542 327.621 576.432C330.01 572.549 332.336 568.702 334.632 564.904C342.873 551.275 350.731 538.278 359.763 526.496C336.022 643.652 389.187 767.823 491.231 835.852L491.336 835.922L491.445 835.989C518.387 852.569 547.863 861.124 579.648 856.917C581.325 856.75 583.108 856.594 584.964 856.433C593.41 855.697 603.376 854.828 611.849 852.152C617.201 850.462 622.495 847.916 626.811 843.844C631.167 839.735 634.216 834.36 635.503 827.586C637.792 818.794 637.095 810.912 634.066 803.909C631.074 796.993 626.021 791.424 620.433 786.791C614.85 782.161 608.383 778.183 602.184 774.595C600.185 773.439 598.237 772.335 596.34 771.26C592.202 768.915 588.309 766.709 584.676 764.401C541.625 735.034 508.57 701.93 483.289 659.222C473.508 639.645 465.667 622.008 457.824 602.417C452.984 586.593 450.425 569.943 448.691 552.745C453.725 559.943 459.434 566.949 466.011 573.555C466.142 573.847 466.279 574.236 466.549 575.046L466.583 575.147C466.81 575.83 467.16 576.882 467.627 577.908C468.113 578.978 468.87 580.36 470.101 581.632C539.537 657.139 639.413 689.604 738.919 681.481L738.982 681.476L739.045 681.469C780.762 677.298 816.36 658.445 843.459 625.092L843.732 624.757L843.961 624.39C844.806 623.038 845.715 621.622 846.66 620.151C850.915 613.524 855.874 605.804 858.791 597.949C862.549 587.831 863.398 576.36 855.812 564.981L855.429 564.406L854.94 563.917L851.95 560.927L848.959 557.936L848.298 557.275L847.487 556.811C833.191 548.642 818.491 551.107 806.625 553.096C804.729 553.414 802.905 553.72 801.167 553.968Z" fill="#62929E" stroke="#333740" stroke-width="13.9569"/>
</svg>
